PathFileType	4	(X/Y/Z)	C:\Users\ebm\Documents\Erivelton\Erivelton2\wc1.trc
DataRate	CameraRate	NumFrames	NumMarkers	Units	OrigDataRate	OrigDataStartFrame	OrigNumFrames
150.00	150.00	       7	28	mm	150.00	1	       750
Frame#	Time	IJ			PX			C7			T8			RAC			RAS			RPS			RAI			RPI			RLE			RME			RRS			RUS			R3M			R5M			LAC			LAS			LPS			LAI			LPI			LLE			LME			LRS			LUS			L3M			L5M			RW			LW			V_mid_elbow_r			V_mid_elbow_l			V_mid_wrist_r			V_mid_wrist_l			V_mid_trunk_low			V_mid_trunk_upp			
		X1	Y1	Z1	X2	Y2	Z2	X3	Y3	Z3	X4	Y4	Z4	X5	Y5	Z5	X6	Y6	Z6	X7	Y7	Z7	X8	Y8	Z8	X9	Y9	Z9	X10	Y10	Z10	X11	Y11	Z11	X12	Y12	Z12	X13	Y13	Z13	X14	Y14	Z14	X15	Y15	Z15	X16	Y16	Z16	X17	Y17	Z17	X18	Y18	Z18	X19	Y19	Z19	X20	Y20	Z20	X21	Y21	Z21	X22	Y22	Z22	X23	Y23	Z23	X24	Y24	Z24	X25	Y25	Z25	X26	Y26	Z26	X27	Y27	Z27	X28	Y28	Z28	

1	0.000	2460.26587	1028.95422	-200.26500	2482.72412	864.68207	-185.48601	2325.08228	1119.22339	-206.62605	2259.27051	965.02710	-195.64783	2379.78979	1064.73633	4.64655	2411.82690	872.07220	66.02515	2362.08569	872.16748	66.37128	2421.22803	797.72089	87.79536	2367.89600	794.21338	88.81622	2381.94653	733.51202	98.92624	2371.98999	710.98315	25.64977	2556.17725	529.44269	147.61942	2499.35522	514.90015	160.20621	2562.93921	441.09415	170.77411	2526.01416	431.34982	160.40009	2366.80005	1057.16467	-388.30707	2370.19360	884.74243	-458.56992	2325.82422	873.92120	-442.16772	2389.05957	807.76270	-476.70337	2339.28442	792.87866	-458.50790	2381.77783	723.05859	-489.05914	2358.91309	701.06555	-419.55743	2550.54443	518.69647	-509.50278	2498.17114	488.50583	-532.55176	2563.54810	426.54544	-531.62238	2523.95166	422.54807	-530.10034	2441.67725	299.36652	131.39009	2429.52539	297.65045	-497.29611	
2	0.007	2460.26465	1028.95752	-200.28342	2482.72119	864.69995	-185.48383	2325.05859	1119.21545	-206.63861	2259.23096	965.03027	-195.65134	2379.77319	1064.74609	4.63528	2411.80542	872.08484	66.03030	2362.08691	872.17627	66.36477	2421.22021	797.73474	87.78456	2367.88599	794.23065	88.81167	2381.92944	733.53198	98.93298	2371.97168	711.01605	25.64134	2556.15161	529.44910	147.61241	2499.32886	514.90790	160.17709	2562.90356	441.10016	170.75470	2525.98877	431.34796	160.38242	2366.78784	1057.17224	-388.33945	2370.19775	884.73785	-458.57745	2325.81348	873.91260	-442.16418	2389.04126	807.75507	-476.70453	2339.28711	792.87903	-458.51071	2381.79004	723.05475	-489.05807	2358.90356	701.05981	-419.56577	2550.54004	518.68842	-509.47662	2498.18140	488.48483	-532.53650	2563.54272	426.54645	-531.62115	2523.94800	422.54291	-530.10138	2441.65771	299.36884	131.40009	2429.52148	297.64566	-497.28998	
3	0.013	2460.26758	1028.97083	-200.28610	2482.72095	864.70605	-185.49550	2325.04492	1119.22534	-206.63641	2259.23242	965.02478	-195.66341	2379.76636	1064.75977	4.62279	2411.79932	872.09613	66.01817	2362.07568	872.17841	66.35447	2421.20996	797.74426	87.78086	2367.88208	794.24646	88.80231	2381.92822	733.53839	98.90803	2371.95361	711.03589	25.63051	2556.13550	529.45941	147.59995	2499.30859	514.91315	160.17876	2562.88257	441.09491	170.74384	2525.96338	431.35608	160.36456	2366.78003	1057.17773	-388.34735	2370.17969	884.73773	-458.57538	2325.81592	873.92212	-442.17737	2389.05493	807.76373	-476.70999	2339.28784	792.87640	-458.51205	2381.79639	723.04340	-489.04932	2358.91406	701.06281	-419.55844	2550.54736	518.68292	-509.45895	2498.17969	488.48441	-532.52637	2563.55176	426.53946	-531.60278	2523.94507	422.54208	-530.09674	2441.65747	299.35941	131.40050	2429.51807	297.65338	-497.27487	
4	0.020	2460.25488	1028.99585	-200.30251	2482.72681	864.72150	-185.49942	2325.02979	1119.21863	-206.65045	2259.22266	965.02185	-195.66258	2379.76318	1064.77869	4.61374	2411.78638	872.10748	66.00953	2362.06665	872.19983	66.34466	2421.20630	797.76501	87.77412	2367.86523	794.25879	88.79296	2381.91968	733.55017	98.89819	2371.95410	711.03461	25.63113	2556.11108	529.45508	147.59723	2499.28198	514.91486	160.16737	2562.85645	441.10330	170.72247	2525.93311	431.35931	160.36720	2366.77466	1057.17432	-388.36264	2370.17944	884.74451	-458.59012	2325.81641	873.91479	-442.16782	2389.05054	807.76685	-476.71344	2339.28857	792.87592	-458.51144	2381.80078	723.04901	-489.05151	2358.92944	701.06873	-419.56219	2550.54565	518.68134	-509.44901	2498.18359	488.49570	-532.53265	2563.54492	426.54175	-531.59320	2523.94800	422.54901	-530.08765	2441.64746	299.37018	131.39159	2429.51318	297.64410	-497.27832	
5	0.027	2460.25146	1029.00635	-200.31786	2482.72437	864.73596	-185.50052	2325.00537	1119.22070	-206.67583	2259.20825	965.01398	-195.68536	2379.74805	1064.78357	4.60683	2411.76465	872.13000	66.00803	2362.05908	872.21442	66.34010	2421.19360	797.76740	87.77010	2367.86304	794.27148	88.78618	2381.90991	733.57129	98.89539	2371.93066	711.06598	25.61591	2556.09180	529.44727	147.58521	2499.27197	514.92468	160.15872	2562.82129	441.10275	170.72327	2525.91064	431.35754	160.33720	2366.76904	1057.18726	-388.38092	2370.17432	884.74420	-458.59424	2325.82129	873.92041	-442.17096	2389.05664	807.77118	-476.71002	2339.28882	792.88031	-458.51129	2381.80371	723.05792	-489.06030	2358.94751	701.07758	-419.56909	2550.56055	518.68079	-509.42526	2498.18604	488.48727	-532.51648	2563.56494	426.50644	-531.68097	2523.93994	422.53851	-530.08435	2441.63062	299.37305	131.38892	2429.50952	297.65799	-497.28351	
6	0.033	2460.25293	1029.02246	-200.33719	2482.71606	864.73981	-185.50877	2324.99829	1119.21008	-206.67621	2259.19946	965.01752	-195.68800	2379.75830	1064.80383	4.59896	2411.76880	872.12897	66.00117	2362.06055	872.22852	66.33406	2421.18726	797.78162	87.76749	2367.85522	794.28729	88.77433	2381.90845	733.58026	98.87399	2371.92505	711.06354	25.61613	2556.07568	529.45636	147.57263	2499.24316	514.93439	160.14925	2562.80200	441.10345	170.70543	2525.89185	431.36630	160.33076	2366.76758	1057.19690	-388.39020	2370.17969	884.74628	-458.60287	2325.82007	873.92120	-442.17505	2389.05151	807.77344	-476.72534	2339.30078	792.87823	-458.51410	2381.81812	723.06610	-489.06488	2358.93530	701.08911	-419.57193	2550.55688	518.68311	-509.40198	2498.21118	488.50323	-532.51544	2563.54590	426.52539	-531.54810	2523.95508	422.54730	-530.07068	2441.61841	299.37244	131.39404	2429.50757	297.65494	-497.28506	
7	0.040	2460.24219	1029.03027	-200.34116	2482.70630	864.74670	-185.51616	2324.98682	1119.22632	-206.69533	2259.18311	965.01886	-195.71684	2379.76050	1064.81628	4.58015	2411.77148	872.14539	66.00344	2362.04468	872.23358	66.31247	2421.18408	797.79749	87.75491	2367.84668	794.29193	88.76214	2381.90869	733.59082	98.87471	2371.90723	711.07410	25.62319	2556.06128	529.46588	147.56236	2499.24170	514.94153	160.14331	2562.78174	441.11099	170.68965	2525.87354	431.37555	160.31447	2366.76318	1057.19043	-388.41034	2370.18628	884.75006	-458.60846	2325.83057	873.92682	-442.18082	2389.06421	807.78058	-476.72864	2339.29150	792.88824	-458.53076	2381.83008	723.07721	-489.07260	2358.94043	701.09021	-419.56528	2550.56592	518.68414	-509.39252	2498.20801	488.50641	-532.50946	2563.55078	426.53516	-531.53900	2523.94873	422.55170	-530.06042	2441.60132	299.36847	131.39883	2429.49951	297.63281	-497.27063	
